<svg width="24" height="24" viewBox="0 0 24 24" fill="none" xmlns="http://www.w3.org/2000/svg">
<rect width="24" height="24" rx="3" fill="#1D3F77"/>
<path d="M10.7093 6.5814H7.57829C6.32577 6.5814 5.69951 6.5814 5.22111 6.82516C4.8003 7.03957 4.45817 7.3817 4.24376 7.80251C4 8.28091 4 8.90717 4 10.1597V16.4217C4 17.6742 4 18.3005 4.24376 18.7789C4.45817 19.1997 4.8003 19.5418 5.22111 19.7562C5.69951 20 6.32577 20 7.57829 20H13.8403C15.0928 20 15.7191 20 16.1975 19.7562C16.6183 19.5418 16.9604 19.1997 17.1748 18.7789C17.4186 18.3005 17.4186 17.6742 17.4186 16.4217V13.2907M8.47285 15.5271H9.72118C10.0859 15.5271 10.2682 15.5271 10.4398 15.4859C10.5919 15.4494 10.7374 15.3892 10.8707 15.3074C11.0212 15.2152 11.1501 15.0863 11.408 14.8284L18.5368 7.69962C19.1544 7.08204 19.1544 6.08076 18.5368 5.46318C17.9192 4.84561 16.918 4.84561 16.3004 5.46318L9.17156 12.592C8.91369 12.8499 8.78476 12.9788 8.69256 13.1293C8.61081 13.2627 8.55057 13.4081 8.51404 13.5602C8.47285 13.7318 8.47285 13.9141 8.47285 14.2788V15.5271Z" stroke="white" stroke-width="2" stroke-linecap="round" stroke-linejoin="round"/>
</svg>
