<svg width="452" height="68" viewBox="0 0 452 68" fill="none" xmlns="http://www.w3.org/2000/svg">
<g filter="url(#filter0_d_40_50)">
<rect x="8" y="8" width="436" height="52" rx="10" fill="white"/>
</g>
<path d="M172.768 40.112C172.032 40.112 171.371 39.984 170.784 39.728C170.208 39.4613 169.755 39.0987 169.424 38.64C169.093 38.1707 168.923 37.632 168.912 37.024H170.464C170.517 37.5467 170.731 37.9893 171.104 38.352C171.488 38.704 172.043 38.88 172.768 38.88C173.461 38.88 174.005 38.7093 174.4 38.368C174.805 38.016 175.008 37.568 175.008 37.024C175.008 36.5973 174.891 36.2507 174.656 35.984C174.421 35.7173 174.128 35.5147 173.776 35.376C173.424 35.2373 172.949 35.088 172.352 34.928C171.616 34.736 171.024 34.544 170.576 34.352C170.139 34.16 169.76 33.8613 169.44 33.456C169.131 33.04 168.976 32.4853 168.976 31.792C168.976 31.184 169.131 30.6453 169.44 30.176C169.749 29.7067 170.181 29.344 170.736 29.088C171.301 28.832 171.947 28.704 172.672 28.704C173.717 28.704 174.571 28.9653 175.232 29.488C175.904 30.0107 176.283 30.704 176.368 31.568H174.768C174.715 31.1413 174.491 30.768 174.096 30.448C173.701 30.1173 173.179 29.952 172.528 29.952C171.92 29.952 171.424 30.112 171.04 30.432C170.656 30.7413 170.464 31.1787 170.464 31.744C170.464 32.1493 170.576 32.48 170.8 32.736C171.035 32.992 171.317 33.1893 171.648 33.328C171.989 33.456 172.464 33.6053 173.072 33.776C173.808 33.9787 174.4 34.1813 174.848 34.384C175.296 34.576 175.68 34.88 176 35.296C176.32 35.7013 176.48 36.256 176.48 36.96C176.48 37.504 176.336 38.016 176.048 38.496C175.76 38.976 175.333 39.3653 174.768 39.664C174.203 39.9627 173.536 40.112 172.768 40.112ZM179.375 29.808C179.097 29.808 178.863 29.712 178.671 29.52C178.479 29.328 178.383 29.0933 178.383 28.816C178.383 28.5387 178.479 28.304 178.671 28.112C178.863 27.92 179.097 27.824 179.375 27.824C179.641 27.824 179.865 27.92 180.047 28.112C180.239 28.304 180.335 28.5387 180.335 28.816C180.335 29.0933 180.239 29.328 180.047 29.52C179.865 29.712 179.641 29.808 179.375 29.808ZM180.079 31.232V40H178.623V31.232H180.079ZM186.176 31.088C186.933 31.088 187.595 31.2533 188.16 31.584C188.736 31.9147 189.163 32.3307 189.44 32.832V31.232H190.912V40.192C190.912 40.992 190.741 41.7013 190.4 42.32C190.059 42.9493 189.568 43.44 188.928 43.792C188.299 44.144 187.563 44.32 186.72 44.32C185.568 44.32 184.608 44.048 183.84 43.504C183.072 42.96 182.619 42.2187 182.48 41.28H183.92C184.08 41.8133 184.411 42.24 184.912 42.56C185.413 42.8907 186.016 43.056 186.72 43.056C187.52 43.056 188.171 42.8053 188.672 42.304C189.184 41.8027 189.44 41.0987 189.44 40.192V38.352C189.152 38.864 188.725 39.2907 188.16 39.632C187.595 39.9733 186.933 40.144 186.176 40.144C185.397 40.144 184.688 39.952 184.048 39.568C183.419 39.184 182.923 38.6453 182.56 37.952C182.197 37.2587 182.016 36.4693 182.016 35.584C182.016 34.688 182.197 33.904 182.56 33.232C182.923 32.5493 183.419 32.0213 184.048 31.648C184.688 31.2747 185.397 31.088 186.176 31.088ZM189.44 35.6C189.44 34.9387 189.307 34.3627 189.04 33.872C188.773 33.3813 188.411 33.008 187.952 32.752C187.504 32.4853 187.008 32.352 186.464 32.352C185.92 32.352 185.424 32.48 184.976 32.736C184.528 32.992 184.171 33.3653 183.904 33.856C183.637 34.3467 183.504 34.9227 183.504 35.584C183.504 36.256 183.637 36.8427 183.904 37.344C184.171 37.8347 184.528 38.2133 184.976 38.48C185.424 38.736 185.92 38.864 186.464 38.864C187.008 38.864 187.504 38.736 187.952 38.48C188.411 38.2133 188.773 37.8347 189.04 37.344C189.307 36.8427 189.44 36.2613 189.44 35.6ZM197.645 31.072C198.711 31.072 199.575 31.3973 200.237 32.048C200.898 32.688 201.229 33.616 201.229 34.832V40H199.789V35.04C199.789 34.1653 199.57 33.4987 199.133 33.04C198.695 32.5707 198.098 32.336 197.341 32.336C196.573 32.336 195.959 32.576 195.501 33.056C195.053 33.536 194.829 34.2347 194.829 35.152V40H193.373V31.232H194.829V32.48C195.117 32.032 195.506 31.6853 195.997 31.44C196.498 31.1947 197.047 31.072 197.645 31.072ZM208.625 29.808C208.347 29.808 208.113 29.712 207.921 29.52C207.729 29.328 207.633 29.0933 207.633 28.816C207.633 28.5387 207.729 28.304 207.921 28.112C208.113 27.92 208.347 27.824 208.625 27.824C208.891 27.824 209.115 27.92 209.297 28.112C209.489 28.304 209.585 28.5387 209.585 28.816C209.585 29.0933 209.489 29.328 209.297 29.52C209.115 29.712 208.891 29.808 208.625 29.808ZM209.329 31.232V40H207.873V31.232H209.329ZM216.082 31.072C217.149 31.072 218.013 31.3973 218.674 32.048C219.335 32.688 219.666 33.616 219.666 34.832V40H218.226V35.04C218.226 34.1653 218.007 33.4987 217.57 33.04C217.133 32.5707 216.535 32.336 215.778 32.336C215.01 32.336 214.397 32.576 213.938 33.056C213.49 33.536 213.266 34.2347 213.266 35.152V40H211.81V31.232H213.266V32.48C213.554 32.032 213.943 31.6853 214.434 31.44C214.935 31.1947 215.485 31.072 216.082 31.072ZM237.99 31.232L235.254 40H233.75L231.638 33.04L229.526 40H228.022L225.27 31.232H226.758L228.774 38.592L230.95 31.232H232.438L234.566 38.608L236.55 31.232H237.99ZM240.187 29.808C239.91 29.808 239.675 29.712 239.483 29.52C239.291 29.328 239.195 29.0933 239.195 28.816C239.195 28.5387 239.291 28.304 239.483 28.112C239.675 27.92 239.91 27.824 240.187 27.824C240.454 27.824 240.678 27.92 240.859 28.112C241.051 28.304 241.147 28.5387 241.147 28.816C241.147 29.0933 241.051 29.328 240.859 29.52C240.678 29.712 240.454 29.808 240.187 29.808ZM240.891 31.232V40H239.435V31.232H240.891ZM245.149 32.432V37.6C245.149 38.0267 245.239 38.3307 245.421 38.512C245.602 38.6827 245.917 38.768 246.365 38.768H247.437V40H246.125C245.314 40 244.706 39.8133 244.301 39.44C243.895 39.0667 243.693 38.4533 243.693 37.6V32.432H242.557V31.232H243.693V29.024H245.149V31.232H247.437V32.432H245.149ZM253.553 31.072C254.214 31.072 254.811 31.216 255.345 31.504C255.878 31.7813 256.294 32.2027 256.593 32.768C256.902 33.3333 257.057 34.0213 257.057 34.832V40H255.617V35.04C255.617 34.1653 255.398 33.4987 254.961 33.04C254.523 32.5707 253.926 32.336 253.169 32.336C252.401 32.336 251.787 32.576 251.329 33.056C250.881 33.536 250.657 34.2347 250.657 35.152V40H249.201V28.16H250.657V32.48C250.945 32.032 251.339 31.6853 251.841 31.44C252.353 31.1947 252.923 31.072 253.553 31.072ZM272.149 32.08C271.839 31.4293 271.391 30.928 270.805 30.576C270.218 30.2133 269.535 30.032 268.757 30.032C267.978 30.032 267.274 30.2133 266.645 30.576C266.026 30.928 265.535 31.44 265.173 32.112C264.821 32.7733 264.645 33.5413 264.645 34.416C264.645 35.2907 264.821 36.0587 265.173 36.72C265.535 37.3813 266.026 37.8933 266.645 38.256C267.274 38.608 267.978 38.784 268.757 38.784C269.845 38.784 270.741 38.4587 271.445 37.808C272.149 37.1573 272.559 36.2773 272.677 35.168H268.229V33.984H274.229V35.104C274.143 36.0213 273.855 36.864 273.365 37.632C272.874 38.3893 272.229 38.992 271.429 39.44C270.629 39.8773 269.738 40.096 268.757 40.096C267.722 40.096 266.778 39.856 265.925 39.376C265.071 38.8853 264.394 38.208 263.893 37.344C263.402 36.48 263.157 35.504 263.157 34.416C263.157 33.328 263.402 32.352 263.893 31.488C264.394 30.6133 265.071 29.936 265.925 29.456C266.778 28.9653 267.722 28.72 268.757 28.72C269.941 28.72 270.986 29.0133 271.893 29.6C272.81 30.1867 273.477 31.0133 273.893 32.08H272.149ZM279.978 40.144C279.157 40.144 278.41 39.9573 277.738 39.584C277.077 39.2107 276.554 38.6827 276.17 38C275.797 37.3067 275.61 36.5067 275.61 35.6C275.61 34.704 275.802 33.9147 276.186 33.232C276.581 32.5387 277.114 32.0107 277.786 31.648C278.458 31.2747 279.21 31.088 280.042 31.088C280.874 31.088 281.626 31.2747 282.298 31.648C282.97 32.0107 283.498 32.5333 283.882 33.216C284.277 33.8987 284.474 34.6933 284.474 35.6C284.474 36.5067 284.271 37.3067 283.866 38C283.471 38.6827 282.933 39.2107 282.25 39.584C281.567 39.9573 280.81 40.144 279.978 40.144ZM279.978 38.864C280.501 38.864 280.991 38.7413 281.45 38.496C281.909 38.2507 282.277 37.8827 282.554 37.392C282.842 36.9013 282.986 36.304 282.986 35.6C282.986 34.896 282.847 34.2987 282.57 33.808C282.293 33.3173 281.93 32.9547 281.482 32.72C281.034 32.4747 280.549 32.352 280.026 32.352C279.493 32.352 279.002 32.4747 278.554 32.72C278.117 32.9547 277.765 33.3173 277.498 33.808C277.231 34.2987 277.098 34.896 277.098 35.6C277.098 36.3147 277.226 36.9173 277.482 37.408C277.749 37.8987 278.101 38.2667 278.538 38.512C278.975 38.7467 279.455 38.864 279.978 38.864ZM290.212 40.144C289.391 40.144 288.644 39.9573 287.972 39.584C287.311 39.2107 286.788 38.6827 286.404 38C286.031 37.3067 285.844 36.5067 285.844 35.6C285.844 34.704 286.036 33.9147 286.42 33.232C286.815 32.5387 287.348 32.0107 288.02 31.648C288.692 31.2747 289.444 31.088 290.276 31.088C291.108 31.088 291.86 31.2747 292.532 31.648C293.204 32.0107 293.732 32.5333 294.116 33.216C294.511 33.8987 294.708 34.6933 294.708 35.6C294.708 36.5067 294.506 37.3067 294.1 38C293.706 38.6827 293.167 39.2107 292.484 39.584C291.802 39.9573 291.044 40.144 290.212 40.144ZM290.212 38.864C290.735 38.864 291.226 38.7413 291.684 38.496C292.143 38.2507 292.511 37.8827 292.788 37.392C293.076 36.9013 293.22 36.304 293.22 35.6C293.22 34.896 293.082 34.2987 292.804 33.808C292.527 33.3173 292.164 32.9547 291.716 32.72C291.268 32.4747 290.783 32.352 290.26 32.352C289.727 32.352 289.236 32.4747 288.788 32.72C288.351 32.9547 287.999 33.3173 287.732 33.808C287.466 34.2987 287.332 34.896 287.332 35.6C287.332 36.3147 287.46 36.9173 287.716 37.408C287.983 37.8987 288.335 38.2667 288.772 38.512C289.21 38.7467 289.69 38.864 290.212 38.864ZM300.239 31.088C300.996 31.088 301.657 31.2533 302.223 31.584C302.799 31.9147 303.225 32.3307 303.503 32.832V31.232H304.975V40.192C304.975 40.992 304.804 41.7013 304.463 42.32C304.121 42.9493 303.631 43.44 302.991 43.792C302.361 44.144 301.625 44.32 300.783 44.32C299.631 44.32 298.671 44.048 297.903 43.504C297.135 42.96 296.681 42.2187 296.543 41.28H297.983C298.143 41.8133 298.473 42.24 298.975 42.56C299.476 42.8907 300.079 43.056 300.783 43.056C301.583 43.056 302.233 42.8053 302.735 42.304C303.247 41.8027 303.503 41.0987 303.503 40.192V38.352C303.215 38.864 302.788 39.2907 302.223 39.632C301.657 39.9733 300.996 40.144 300.239 40.144C299.46 40.144 298.751 39.952 298.111 39.568C297.481 39.184 296.985 38.6453 296.623 37.952C296.26 37.2587 296.079 36.4693 296.079 35.584C296.079 34.688 296.26 33.904 296.623 33.232C296.985 32.5493 297.481 32.0213 298.111 31.648C298.751 31.2747 299.46 31.088 300.239 31.088ZM303.503 35.6C303.503 34.9387 303.369 34.3627 303.103 33.872C302.836 33.3813 302.473 33.008 302.015 32.752C301.567 32.4853 301.071 32.352 300.527 32.352C299.983 32.352 299.487 32.48 299.039 32.736C298.591 32.992 298.233 33.3653 297.967 33.856C297.7 34.3467 297.567 34.9227 297.567 35.584C297.567 36.256 297.7 36.8427 297.967 37.344C298.233 37.8347 298.591 38.2133 299.039 38.48C299.487 38.736 299.983 38.864 300.527 38.864C301.071 38.864 301.567 38.736 302.015 38.48C302.473 38.2133 302.836 37.8347 303.103 37.344C303.369 36.8427 303.503 36.2613 303.503 35.6ZM308.891 28.16V40H307.435V28.16H308.891ZM319.373 35.28C319.373 35.5573 319.357 35.8507 319.325 36.16H312.317C312.37 37.024 312.663 37.7013 313.197 38.192C313.741 38.672 314.397 38.912 315.165 38.912C315.794 38.912 316.317 38.768 316.733 38.48C317.159 38.1813 317.458 37.7867 317.629 37.296H319.197C318.962 38.1387 318.493 38.8267 317.789 39.36C317.085 39.8827 316.21 40.144 315.165 40.144C314.333 40.144 313.586 39.9573 312.925 39.584C312.274 39.2107 311.762 38.6827 311.389 38C311.015 37.3067 310.829 36.5067 310.829 35.6C310.829 34.6933 311.01 33.8987 311.373 33.216C311.735 32.5333 312.242 32.0107 312.893 31.648C313.554 31.2747 314.311 31.088 315.165 31.088C315.997 31.088 316.733 31.2693 317.373 31.632C318.013 31.9947 318.503 32.496 318.845 33.136C319.197 33.7653 319.373 34.48 319.373 35.28ZM317.869 34.976C317.869 34.4213 317.746 33.9467 317.501 33.552C317.255 33.1467 316.919 32.8427 316.493 32.64C316.077 32.4267 315.613 32.32 315.101 32.32C314.365 32.32 313.735 32.5547 313.213 33.024C312.701 33.4933 312.407 34.144 312.333 34.976H317.869Z" fill="#003F77"/>
<g clip-path="url(#clip0_40_50)">
<path d="M147.786 34.1684C147.786 33.4309 147.726 32.8928 147.596 32.3347H139.175V35.6632H144.118C144.019 36.4904 143.48 37.7361 142.284 38.5732L142.268 38.6846L144.93 40.7473L145.115 40.7657C146.809 39.201 147.786 36.899 147.786 34.1684Z" fill="#4285F4"/>
<path d="M139.175 42.9382C141.597 42.9382 143.63 42.1409 145.115 40.7657L142.284 38.5732C141.527 39.1014 140.511 39.4701 139.175 39.4701C136.803 39.4701 134.79 37.9055 134.073 35.743L133.968 35.7519L131.199 37.8945L131.163 37.9952C132.638 40.9251 135.667 42.9382 139.175 42.9382Z" fill="#34A853"/>
<path d="M134.073 35.743C133.883 35.1849 133.774 34.5869 133.774 33.9691C133.774 33.3512 133.883 32.7533 134.063 32.1952L134.058 32.0763L131.255 29.8993L131.163 29.9429C130.555 31.1587 130.206 32.5241 130.206 33.9691C130.206 35.4141 130.555 36.7794 131.163 37.9952L134.073 35.743Z" fill="#FBBC05"/>
<path d="M139.175 28.468C140.859 28.468 141.995 29.1955 142.643 29.8035L145.174 27.332C143.62 25.8869 141.597 25 139.175 25C135.667 25 132.638 27.013 131.163 29.9429L134.063 32.1952C134.79 30.0326 136.803 28.468 139.175 28.468Z" fill="#EB4335"/>
</g>
<defs>
<filter id="filter0_d_40_50" x="0" y="0" width="452" height="68" filterUnits="userSpaceOnUse" color-interpolation-filters="sRGB">
<feFlood flood-opacity="0" result="BackgroundImageFix"/>
<feColorMatrix in="SourceAlpha" type="matrix" values="0 0 0 0 0 0 0 0 0 0 0 0 0 0 0 0 0 0 127 0" result="hardAlpha"/>
<feOffset/>
<feGaussianBlur stdDeviation="4"/>
<feComposite in2="hardAlpha" operator="out"/>
<feColorMatrix type="matrix" values="0 0 0 0 0 0 0 0 0 0 0 0 0 0 0 0 0 0 0.08 0"/>
<feBlend mode="normal" in2="BackgroundImageFix" result="effect1_dropShadow_40_50"/>
<feBlend mode="normal" in="SourceGraphic" in2="effect1_dropShadow_40_50" result="shape"/>
</filter>
<clipPath id="clip0_40_50">
<rect width="18" height="18" fill="white" transform="translate(130 25)"/>
</clipPath>
</defs>
</svg>
