<svg width="191" height="24" viewBox="0 0 191 24" fill="none" xmlns="http://www.w3.org/2000/svg">
<path d="M42.768 18.112C42.032 18.112 41.3707 17.984 40.784 17.728C40.208 17.4613 39.7547 17.0987 39.424 16.64C39.0933 16.1707 38.9227 15.632 38.912 15.024H40.464C40.5173 15.5467 40.7307 15.9893 41.104 16.352C41.488 16.704 42.0427 16.88 42.768 16.88C43.4613 16.88 44.0053 16.7093 44.4 16.368C44.8053 16.016 45.008 15.568 45.008 15.024C45.008 14.5973 44.8907 14.2507 44.656 13.984C44.4213 13.7173 44.128 13.5147 43.776 13.376C43.424 13.2373 42.9493 13.088 42.352 12.928C41.616 12.736 41.024 12.544 40.576 12.352C40.1387 12.16 39.76 11.8613 39.44 11.456C39.1307 11.04 38.976 10.4853 38.976 9.792C38.976 9.184 39.1307 8.64533 39.44 8.176C39.7493 7.70667 40.1813 7.344 40.736 7.088C41.3013 6.832 41.9467 6.704 42.672 6.704C43.7173 6.704 44.5707 6.96533 45.232 7.488C45.904 8.01067 46.2827 8.704 46.368 9.568H44.768C44.7147 9.14133 44.4907 8.768 44.096 8.448C43.7013 8.11733 43.1787 7.952 42.528 7.952C41.92 7.952 41.424 8.112 41.04 8.432C40.656 8.74133 40.464 9.17867 40.464 9.744C40.464 10.1493 40.576 10.48 40.8 10.736C41.0347 10.992 41.3173 11.1893 41.648 11.328C41.9893 11.456 42.464 11.6053 43.072 11.776C43.808 11.9787 44.4 12.1813 44.848 12.384C45.296 12.576 45.68 12.88 46 13.296C46.32 13.7013 46.48 14.256 46.48 14.96C46.48 15.504 46.336 16.016 46.048 16.496C45.76 16.976 45.3333 17.3653 44.768 17.664C44.2027 17.9627 43.536 18.112 42.768 18.112ZM49.3746 7.808C49.0973 7.808 48.8626 7.712 48.6706 7.52C48.4786 7.328 48.3826 7.09333 48.3826 6.816C48.3826 6.53867 48.4786 6.304 48.6706 6.112C48.8626 5.92 49.0973 5.824 49.3746 5.824C49.6413 5.824 49.8653 5.92 50.0466 6.112C50.2386 6.304 50.3346 6.53867 50.3346 6.816C50.3346 7.09333 50.2386 7.328 50.0466 7.52C49.8653 7.712 49.6413 7.808 49.3746 7.808ZM50.0786 9.232V18H48.6226V9.232H50.0786ZM56.1761 9.088C56.9335 9.088 57.5948 9.25333 58.1601 9.584C58.7361 9.91467 59.1628 10.3307 59.4401 10.832V9.232H60.9121V18.192C60.9121 18.992 60.7415 19.7013 60.4001 20.32C60.0588 20.9493 59.5681 21.44 58.9281 21.792C58.2988 22.144 57.5628 22.32 56.7201 22.32C55.5681 22.32 54.6081 22.048 53.8401 21.504C53.0721 20.96 52.6188 20.2187 52.4801 19.28H53.9201C54.0801 19.8133 54.4108 20.24 54.9121 20.56C55.4135 20.8907 56.0161 21.056 56.7201 21.056C57.5201 21.056 58.1708 20.8053 58.6721 20.304C59.1841 19.8027 59.4401 19.0987 59.4401 18.192V16.352C59.1521 16.864 58.7255 17.2907 58.1601 17.632C57.5948 17.9733 56.9335 18.144 56.1761 18.144C55.3975 18.144 54.6881 17.952 54.0481 17.568C53.4188 17.184 52.9228 16.6453 52.5601 15.952C52.1975 15.2587 52.0161 14.4693 52.0161 13.584C52.0161 12.688 52.1975 11.904 52.5601 11.232C52.9228 10.5493 53.4188 10.0213 54.0481 9.648C54.6881 9.27467 55.3975 9.088 56.1761 9.088ZM59.4401 13.6C59.4401 12.9387 59.3068 12.3627 59.0401 11.872C58.7735 11.3813 58.4108 11.008 57.9521 10.752C57.5041 10.4853 57.0081 10.352 56.4641 10.352C55.9201 10.352 55.4241 10.48 54.9761 10.736C54.5281 10.992 54.1708 11.3653 53.9041 11.856C53.6375 12.3467 53.5041 12.9227 53.5041 13.584C53.5041 14.256 53.6375 14.8427 53.9041 15.344C54.1708 15.8347 54.5281 16.2133 54.9761 16.48C55.4241 16.736 55.9201 16.864 56.4641 16.864C57.0081 16.864 57.5041 16.736 57.9521 16.48C58.4108 16.2133 58.7735 15.8347 59.0401 15.344C59.3068 14.8427 59.4401 14.2613 59.4401 13.6ZM67.6446 9.072C68.7113 9.072 69.5753 9.39733 70.2366 10.048C70.898 10.688 71.2286 11.616 71.2286 12.832V18H69.7886V13.04C69.7886 12.1653 69.57 11.4987 69.1326 11.04C68.6953 10.5707 68.098 10.336 67.3406 10.336C66.5726 10.336 65.9593 10.576 65.5006 11.056C65.0526 11.536 64.8286 12.2347 64.8286 13.152V18H63.3726V9.232H64.8286V10.48C65.1166 10.032 65.506 9.68533 65.9966 9.44C66.498 9.19467 67.0473 9.072 67.6446 9.072ZM78.6246 7.808C78.3473 7.808 78.1126 7.712 77.9206 7.52C77.7286 7.328 77.6326 7.09333 77.6326 6.816C77.6326 6.53867 77.7286 6.304 77.9206 6.112C78.1126 5.92 78.3473 5.824 78.6246 5.824C78.8913 5.824 79.1153 5.92 79.2966 6.112C79.4886 6.304 79.5846 6.53867 79.5846 6.816C79.5846 7.09333 79.4886 7.328 79.2966 7.52C79.1153 7.712 78.8913 7.808 78.6246 7.808ZM79.3286 9.232V18H77.8726V9.232H79.3286ZM86.0821 9.072C87.1488 9.072 88.0128 9.39733 88.6741 10.048C89.3355 10.688 89.6661 11.616 89.6661 12.832V18H88.2261V13.04C88.2261 12.1653 88.0075 11.4987 87.5701 11.04C87.1328 10.5707 86.5355 10.336 85.7781 10.336C85.0101 10.336 84.3968 10.576 83.9381 11.056C83.4901 11.536 83.2661 12.2347 83.2661 13.152V18H81.8101V9.232H83.2661V10.48C83.5541 10.032 83.9435 9.68533 84.4341 9.44C84.9355 9.19467 85.4848 9.072 86.0821 9.072ZM107.99 9.232L105.254 18H103.75L101.638 11.04L99.5261 18H98.0221L95.2701 9.232H96.7581L98.7741 16.592L100.95 9.232H102.438L104.566 16.608L106.55 9.232H107.99ZM110.187 7.808C109.91 7.808 109.675 7.712 109.483 7.52C109.291 7.328 109.195 7.09333 109.195 6.816C109.195 6.53867 109.291 6.304 109.483 6.112C109.675 5.92 109.91 5.824 110.187 5.824C110.454 5.824 110.678 5.92 110.859 6.112C111.051 6.304 111.147 6.53867 111.147 6.816C111.147 7.09333 111.051 7.328 110.859 7.52C110.678 7.712 110.454 7.808 110.187 7.808ZM110.891 9.232V18H109.435V9.232H110.891ZM115.149 10.432V15.6C115.149 16.0267 115.239 16.3307 115.421 16.512C115.602 16.6827 115.917 16.768 116.365 16.768H117.437V18H116.125C115.314 18 114.706 17.8133 114.301 17.44C113.895 17.0667 113.693 16.4533 113.693 15.6V10.432H112.557V9.232H113.693V7.024H115.149V9.232H117.437V10.432H115.149ZM123.553 9.072C124.214 9.072 124.811 9.216 125.345 9.504C125.878 9.78133 126.294 10.2027 126.593 10.768C126.902 11.3333 127.057 12.0213 127.057 12.832V18H125.617V13.04C125.617 12.1653 125.398 11.4987 124.961 11.04C124.523 10.5707 123.926 10.336 123.169 10.336C122.401 10.336 121.787 10.576 121.329 11.056C120.881 11.536 120.657 12.2347 120.657 13.152V18H119.201V6.16H120.657V10.48C120.945 10.032 121.339 9.68533 121.841 9.44C122.353 9.19467 122.923 9.072 123.553 9.072ZM142.149 10.08C141.839 9.42933 141.391 8.928 140.805 8.576C140.218 8.21333 139.535 8.032 138.757 8.032C137.978 8.032 137.274 8.21333 136.645 8.576C136.026 8.928 135.535 9.44 135.173 10.112C134.821 10.7733 134.645 11.5413 134.645 12.416C134.645 13.2907 134.821 14.0587 135.173 14.72C135.535 15.3813 136.026 15.8933 136.645 16.256C137.274 16.608 137.978 16.784 138.757 16.784C139.845 16.784 140.741 16.4587 141.445 15.808C142.149 15.1573 142.559 14.2773 142.677 13.168H138.229V11.984H144.229V13.104C144.143 14.0213 143.855 14.864 143.365 15.632C142.874 16.3893 142.229 16.992 141.429 17.44C140.629 17.8773 139.738 18.096 138.757 18.096C137.722 18.096 136.778 17.856 135.925 17.376C135.071 16.8853 134.394 16.208 133.893 15.344C133.402 14.48 133.157 13.504 133.157 12.416C133.157 11.328 133.402 10.352 133.893 9.488C134.394 8.61333 135.071 7.936 135.925 7.456C136.778 6.96533 137.722 6.72 138.757 6.72C139.941 6.72 140.986 7.01333 141.893 7.6C142.81 8.18667 143.477 9.01333 143.893 10.08H142.149ZM149.978 18.144C149.157 18.144 148.41 17.9573 147.738 17.584C147.077 17.2107 146.554 16.6827 146.17 16C145.797 15.3067 145.61 14.5067 145.61 13.6C145.61 12.704 145.802 11.9147 146.186 11.232C146.581 10.5387 147.114 10.0107 147.786 9.648C148.458 9.27467 149.21 9.088 150.042 9.088C150.874 9.088 151.626 9.27467 152.298 9.648C152.97 10.0107 153.498 10.5333 153.882 11.216C154.277 11.8987 154.474 12.6933 154.474 13.6C154.474 14.5067 154.271 15.3067 153.866 16C153.471 16.6827 152.933 17.2107 152.25 17.584C151.567 17.9573 150.81 18.144 149.978 18.144ZM149.978 16.864C150.501 16.864 150.991 16.7413 151.45 16.496C151.909 16.2507 152.277 15.8827 152.554 15.392C152.842 14.9013 152.986 14.304 152.986 13.6C152.986 12.896 152.847 12.2987 152.57 11.808C152.293 11.3173 151.93 10.9547 151.482 10.72C151.034 10.4747 150.549 10.352 150.026 10.352C149.493 10.352 149.002 10.4747 148.554 10.72C148.117 10.9547 147.765 11.3173 147.498 11.808C147.231 12.2987 147.098 12.896 147.098 13.6C147.098 14.3147 147.226 14.9173 147.482 15.408C147.749 15.8987 148.101 16.2667 148.538 16.512C148.975 16.7467 149.455 16.864 149.978 16.864ZM160.212 18.144C159.391 18.144 158.644 17.9573 157.972 17.584C157.311 17.2107 156.788 16.6827 156.404 16C156.031 15.3067 155.844 14.5067 155.844 13.6C155.844 12.704 156.036 11.9147 156.42 11.232C156.815 10.5387 157.348 10.0107 158.02 9.648C158.692 9.27467 159.444 9.088 160.276 9.088C161.108 9.088 161.86 9.27467 162.532 9.648C163.204 10.0107 163.732 10.5333 164.116 11.216C164.511 11.8987 164.708 12.6933 164.708 13.6C164.708 14.5067 164.506 15.3067 164.1 16C163.706 16.6827 163.167 17.2107 162.484 17.584C161.802 17.9573 161.044 18.144 160.212 18.144ZM160.212 16.864C160.735 16.864 161.226 16.7413 161.684 16.496C162.143 16.2507 162.511 15.8827 162.788 15.392C163.076 14.9013 163.22 14.304 163.22 13.6C163.22 12.896 163.082 12.2987 162.804 11.808C162.527 11.3173 162.164 10.9547 161.716 10.72C161.268 10.4747 160.783 10.352 160.26 10.352C159.727 10.352 159.236 10.4747 158.788 10.72C158.351 10.9547 157.999 11.3173 157.732 11.808C157.466 12.2987 157.332 12.896 157.332 13.6C157.332 14.3147 157.46 14.9173 157.716 15.408C157.983 15.8987 158.335 16.2667 158.772 16.512C159.21 16.7467 159.69 16.864 160.212 16.864ZM170.239 9.088C170.996 9.088 171.657 9.25333 172.223 9.584C172.799 9.91467 173.225 10.3307 173.503 10.832V9.232H174.975V18.192C174.975 18.992 174.804 19.7013 174.463 20.32C174.121 20.9493 173.631 21.44 172.991 21.792C172.361 22.144 171.625 22.32 170.783 22.32C169.631 22.32 168.671 22.048 167.903 21.504C167.135 20.96 166.681 20.2187 166.543 19.28H167.983C168.143 19.8133 168.473 20.24 168.975 20.56C169.476 20.8907 170.079 21.056 170.783 21.056C171.583 21.056 172.233 20.8053 172.735 20.304C173.247 19.8027 173.503 19.0987 173.503 18.192V16.352C173.215 16.864 172.788 17.2907 172.223 17.632C171.657 17.9733 170.996 18.144 170.239 18.144C169.46 18.144 168.751 17.952 168.111 17.568C167.481 17.184 166.985 16.6453 166.623 15.952C166.26 15.2587 166.079 14.4693 166.079 13.584C166.079 12.688 166.26 11.904 166.623 11.232C166.985 10.5493 167.481 10.0213 168.111 9.648C168.751 9.27467 169.46 9.088 170.239 9.088ZM173.503 13.6C173.503 12.9387 173.369 12.3627 173.103 11.872C172.836 11.3813 172.473 11.008 172.015 10.752C171.567 10.4853 171.071 10.352 170.527 10.352C169.983 10.352 169.487 10.48 169.039 10.736C168.591 10.992 168.233 11.3653 167.967 11.856C167.7 12.3467 167.567 12.9227 167.567 13.584C167.567 14.256 167.7 14.8427 167.967 15.344C168.233 15.8347 168.591 16.2133 169.039 16.48C169.487 16.736 169.983 16.864 170.527 16.864C171.071 16.864 171.567 16.736 172.015 16.48C172.473 16.2133 172.836 15.8347 173.103 15.344C173.369 14.8427 173.503 14.2613 173.503 13.6ZM178.891 6.16V18H177.435V6.16H178.891ZM189.373 13.28C189.373 13.5573 189.357 13.8507 189.325 14.16H182.317C182.37 15.024 182.663 15.7013 183.197 16.192C183.741 16.672 184.397 16.912 185.165 16.912C185.794 16.912 186.317 16.768 186.733 16.48C187.159 16.1813 187.458 15.7867 187.629 15.296H189.197C188.962 16.1387 188.493 16.8267 187.789 17.36C187.085 17.8827 186.21 18.144 185.165 18.144C184.333 18.144 183.586 17.9573 182.925 17.584C182.274 17.2107 181.762 16.6827 181.389 16C181.015 15.3067 180.829 14.5067 180.829 13.6C180.829 12.6933 181.01 11.8987 181.373 11.216C181.735 10.5333 182.242 10.0107 182.893 9.648C183.554 9.27467 184.311 9.088 185.165 9.088C185.997 9.088 186.733 9.26933 187.373 9.632C188.013 9.99467 188.503 10.496 188.845 11.136C189.197 11.7653 189.373 12.48 189.373 13.28ZM187.869 12.976C187.869 12.4213 187.746 11.9467 187.501 11.552C187.255 11.1467 186.919 10.8427 186.493 10.64C186.077 10.4267 185.613 10.32 185.101 10.32C184.365 10.32 183.735 10.5547 183.213 11.024C182.701 11.4933 182.407 12.144 182.333 12.976H187.869Z" fill="#003F77"/>
<g clip-path="url(#clip0_12_35)">
<path d="M17.7855 12.1684C17.7855 11.4309 17.7257 10.8928 17.5962 10.3347H9.1752V13.6632H14.1181C14.0185 14.4904 13.4804 15.7361 12.2845 16.5732L12.2677 16.6846L14.9303 18.7473L15.1147 18.7657C16.8089 17.201 17.7855 14.899 17.7855 12.1684Z" fill="#4285F4"/>
<path d="M9.17519 20.9382C11.5968 20.9382 13.6298 20.1409 15.1147 18.7657L12.2844 16.5732C11.5271 17.1014 10.5106 17.4701 9.17519 17.4701C6.80338 17.4701 4.79033 15.9055 4.07273 13.743L3.96755 13.7519L1.19899 15.8945L1.16278 15.9952C2.63768 18.9251 5.66725 20.9382 9.17519 20.9382Z" fill="#34A853"/>
<path d="M4.07275 13.743C3.88341 13.1849 3.77383 12.5869 3.77383 11.9691C3.77383 11.3512 3.88341 10.7533 4.06279 10.1952L4.05777 10.0763L1.25451 7.8993L1.1628 7.94292C0.554917 9.15875 0.206116 10.5241 0.206116 11.9691C0.206116 13.4141 0.554917 14.7794 1.1628 15.9952L4.07275 13.743Z" fill="#FBBC05"/>
<path d="M9.17519 6.46802C10.8594 6.46802 11.9954 7.19551 12.6432 7.80346L15.1745 5.33196C13.6199 3.88695 11.5968 3 9.17519 3C5.66725 3 2.63768 5.01305 1.16278 7.94292L4.06277 10.1952C4.79033 8.03265 6.80338 6.46802 9.17519 6.46802Z" fill="#EB4335"/>
</g>
<defs>
<clipPath id="clip0_12_35">
<rect width="18" height="18" fill="white" transform="translate(0 3)"/>
</clipPath>
</defs>
</svg>
